# AST/ASF file generated using VICON BodyLanguage
# -----------------------------------------------
:version 1.10
:name VICON
:units
  mass 1.0
  length 0.45
  angle deg
:documentation
   .ast/.asf automatically generated from VICON data using
   VICON BodyBuilder and BodyLanguage model FoxedUp or BRILLIANT.MOD
:root
   order TX TY TZ RX RY RZ
   axis XYZ
   position 0 0 0  
   orientation 0 0 0 
:bonedata
  begin
     id 1 
     name lhipjoint
     direction 0.541323 -0.757556 0.364798 
     length 2.47576 
     axis 0 0 0  XYZ
  end
  begin
     id 2 
     name lfemur
     direction 0.34202 -0.939693 0  
     length 7.46493  
     axis 0 0 20  XYZ
    dof rx ry rz
    limits (-160.0 20.0)
           (-70.0 70.0)
           (-60.0 70.0)
  end
  begin
     id 3 
     name ltibia
     direction 0.34202 -0.939693 0   
     length 7.73805   
     axis 0 0 20   XYZ
    dof rx
    limits (-10.0 170.0)
  end
  begin
     id 4 
     name lfoot
     direction 0.107174 -0.294458 0.949636   
     length 2.25864   
     axis -90 7.62852e-016 20   XYZ
    dof rx rz
    limits (-45.0 90.0)
           (-70.0 20.0)
  end
  begin
     id 5 
     name ltoes
     direction 1.53606e-011 -4.21934e-011 1   
     length 1.12451   
     axis -90 7.62852e-016 20   XYZ
    dof rx
    limits (-90.0 20.0)
  end
  begin
     id 6 
     name rhipjoint
     direction -0.524745 -0.766967 0.36933   
     length 2.44538  
     axis 0 0 0  XYZ 
  end
  begin
     id 7 
     name rfemur
     direction -0.34202 -0.939693 0   
     length 7.61604   
     axis 0 0 -20   XYZ
    dof rx ry rz
    limits (-160.0 20.0)
           (-70.0 70.0)
           (-70.0 60.0)
  end
  begin
     id 8 
     name rtibia
     direction -0.34202 -0.939693 0   
     length 7.61056   
     axis 0 0 -20   XYZ
    dof rx
    limits (-10.0 170.0)
 end
 begin
     id 9 
     name rfoot
     direction -0.12616 -0.346623 0.929482   
     length 2.46372  
     axis -90 -7.62852e-016 -20   XYZ
    dof rx rz
    limits (-45.0 90.0)
           (-20.0 70.0)
  end
  begin
     id 10 
     name rtoes
     direction -1.53531e-011 -4.22004e-011 1   
     length 1.21611   
     axis -90 -7.62852e-016 -20   XYZ
    dof rx
    limits (-90.0 20.0)
  end
  begin
     id 11 
     name lowerback
     direction -0.000778023 0.997293 -0.0735223   
     length 2.06139   
     axis 0 0 0   XYZ
    dof rx ry rz
    limits (-20.0 45.0)
           (-30.0 30.0)
           (-30.0 30.0)
  end
  begin
     id 12 
     name upperback
     direction 0.0222598 0.999722 -0.0078355   
     length 2.06383   
     axis 0 0 0   XYZ
    dof rx ry rz
    limits (-20.0 45.0)
           (-30.0 30.0)
           (-30.0 30.0)
  end
  begin
     id 13 
     name thorax
     direction 0.0219654 0.999405 0.0265994   
     length 2.07163   
     axis 0 0 0   XYZ
    dof rx ry rz
    limits (-20.0 45.0)
           (-30.0 30.0)
           (-30.0 30.0)
  end
  begin
     id 14 
     name lowerneck
     direction 0.0213282 0.988147 0.15202   
     length 1.75969   
     axis 0 0 0   XYZ
    dof rx ry rz
    limits (-20.0 45.0)
           (-30.0 30.0)
           (-30.0 30.0)
  end
  begin
     id 15 
     name upperneck
     direction -0.0546456 0.982624 -0.177379   
     length 1.79244   
     axis 0 0 0   XYZ
    dof rx ry rz
    limits (-20.0 45.0)
           (-30.0 30.0)
           (-30.0 30.0)
  end
  begin
     id 16
     name head
     direction -0.0199987 0.996855 -0.076686  
     length 1.80555  
     axis 0 0 0   XYZ
    dof rx ry rz
    limits (-20.0 45.0)
           (-30.0 30.0)
           (-30.0 30.0)
  end
  begin
     id 17 
     name lclavicle
     direction 0.929565 0.363219 -0.063096  
     length 3.55722  
     axis 0 0 0   XYZ
    dof ry rz
    limits (-20.0 10.0)
           (0.0 20.0)
  end
  begin
     id 18 
     name lhumerus
     direction 1 -4.48993e-011 -2.36203e-027   
     length 4.92785   
     axis 180 -30 -90   XYZ
    dof rx ry rz
    limits (-60.0 90.0)
           (-90.0 90.0)
           (-90.0 90.0)
  end
  begin
     id 19
     name lradius
     direction 1 -4.48947e-011 2.02997e-027   
     length 3.44052   
     axis 180 -30 -90   XYZ
    dof rx
    limits (-10.0 170.0)
  end
  begin
     id 20
     name lwrist
     direction 1 -4.48962e-011 1.45991e-027   
     length 1.72026   
     axis 1.49639e-024 90 90   XYZ
    dof ry
    limits (-180.0 0.0)
 end
  begin
     id 21 
     name lhand
     direction 1 -4.48984e-011 2.91906e-027   
     length 0.654326   
     axis -1.863e-015 90 90   XYZ
    dof rx rz
    limits (-90.0 90.0)
           (-45.0 45.0)
  end
  begin
     id 22 
     name lfingers
     direction 1 -4.48961e-011 5.83968e-027   
     length 0.527534   
     axis -3.72598e-015 90 90   XYZ
    dof rx
    limits (0.0 90.0)
  end
  begin
     id 23
     name lthumb
     direction 0.707107 -6.34963e-011 0.707107   
     length 0.757437   
     axis -90 45 -6.68868e-015   XYZ
    dof rx rz
    limits (-45.0 45.0)
           (-45.0 45.0)
  end
  begin
     id 24 
     name rclavicle
     direction -0.902944 0.422599 -0.0781198   
     length 3.54432  
     axis 0 0 0   XYZ 
    dof ry rz
    limits (-10.0 20.0)
           (-20.0 0.0)
  end
  begin
     id 25 
     name rhumerus
     direction -1 -4.48953e-011 -4.75835e-028  
     length 5.09181   
     axis 180 30 90   XYZ
    dof rx ry rz
    limits (-90.0 60.0)
           (-90.0 90.0)
           (-90.0 90.0)
  end
  begin
     id 26 
     name rradius
     direction -1 -4.48986e-011 -3.25889e-027   
     length 3.49865   
     axis 180 30 90   XYZ
    dof rx
    limits (-10.0 170.0)
  end
  begin
     id 27 
     name rwrist
     direction -1 -4.48963e-011 1.45989e-027   
     length 1.74933   
     axis 1.49639e-024 -90 -90   XYZ
    dof ry
    limits (-180.0 0.0)
  end
  begin
     id 28
     name rhand
     direction -1 -4.49003e-011 2.91844e-027   
     length 0.66641   
     axis -1.863e-015 -90 -90   XYZ
    dof rx rz
    limits (-90.0 90.0)
           (-45.0 45.0)
  end
  begin
     id 29
     name rfingers
     direction -1 -4.48973e-011 5.83886e-027   
     length 0.537277   
     axis -3.72598e-015 -90 -90   XYZ
    dof rx
    limits (0.0 90.0)
  end
  begin
     id 30
     name rthumb
     direction -0.707107 -6.34976e-011 0.707107   
     length 0.771425   
     axis -90 -45 6.68868e-015   XYZ
    dof rx rz
    limits (-45.0 45.0)
           (-45.0 45.0)
  end
:hierarchy
  begin
    root lhipjoint rhipjoint lowerback
    lhipjoint lfemur
    lfemur ltibia
    ltibia lfoot
    lfoot ltoes
    rhipjoint rfemur
    rfemur rtibia
    rtibia rfoot
    rfoot rtoes
    lowerback upperback
    upperback thorax
    thorax lowerneck lclavicle rclavicle
    lowerneck upperneck
    upperneck head
    lclavicle lhumerus
    lhumerus lradius
    lradius lwrist
    lwrist lhand lthumb
    lhand lfingers
    rclavicle rhumerus
    rhumerus rradius
    rradius rwrist
    rwrist rhand rthumb
    rhand rfingers
  end

#!OML:ASF H:\LiuWeirdWalks\Patient Classification 1\Patient 1\Session 1\male.ASF
:FULLY-SPECIFIED
:DEGREES
139
root 0.361075 17.926 -26.613 2.1992 36.8261 0.110414
lowerback 3.06211 8.44821 2.24122
upperback -1.27279 11.3655 -0.0448631
thorax -2.56672 5.6304 -1.81956
lowerneck 4.62036 19.2767 15.464
upperneck 5.59947 26.9956 -10.0345
head 4.34333 13.6133 -3.82443
rclavicle 1.84513e-014 4.37326e-015
rhumerus -40.3286 -20.2487 -66.1265
rradius 29.5342
rwrist -11.4063
rhand -13.6366 -1.36641
rfingers 7.12502
rthumb 12.4795 -30.9738
lclavicle 1.84513e-014 4.37326e-015
lhumerus -33.5354 9.21965 77.8482
lradius 27.1646
lwrist 4.83875
lhand -9.07509 1.40927
lfingers 7.12502
lthumb 16.8742 30.6962
rfemur 3.71157 -15.542 15.9335
rtibia 21.4285
rfoot -19.367 -44.0068
rtoes 3.95362
lfemur -13.5771 -11.3339 -13.494
ltibia 25.7044
lfoot -11.7792 -2.89518
ltoes -10.4225
140
root 0.363889 17.9264 -26.6157 2.18433 36.6072 0.121033
lowerback 2.99501 8.3931 2.16996
upperback -1.24991 11.2875 -0.0190484
thorax -2.52771 5.59393 -1.74167
lowerneck 4.70004 19.0255 15.4655
upperneck 5.66839 26.6523 -9.84926
head 4.2855 13.4511 -3.82634
rclavicle 2.41026e-014 -2.78299e-015
rhumerus -39.8993 -19.3475 -66.4289
rradius 29.5198
rwrist -12.0822
rhand -13.6885 -1.44747
rfingers 7.12502
rthumb 12.4294 -31.0579
lclavicle 2.41026e-014 -2.78299e-015
lhumerus -33.6677 9.61616 77.6858
lradius 26.9782
lwrist 4.74835
lhand -9.12593 1.47008
lfingers 7.12502
lthumb 16.8252 30.7611
rfemur 3.71519 -15.4439 15.8768
rtibia 21.4205
rfoot -19.2955 -43.8733
rtoes 3.8877
lfemur -13.4875 -11.3156 -13.5338
ltibia 25.6797
lfoot -11.7507 -2.67817
ltoes -10.4241
141
root 0.366909 17.9267 -26.6181 2.17821 36.3812 0.151988
lowerback 2.92109 8.35089 2.08471
upperback -1.22383 11.2255 -0.0139786
thorax -2.47923 5.56567 -1.6763
lowerneck 4.70068 18.7249 15.5501
upperneck 5.83348 26.2438 -9.68011
head 4.27493 13.2555 -3.83354
rclavicle -9.12779e-014 -5.96354e-015
rhumerus -39.4781 -18.3631 -66.7461
rradius 29.5366
rwrist -12.8861
rhand -13.7488 -1.5316
rfingers 7.12502
rthumb 12.3713 -31.1456
lclavicle -9.12779e-014 -5.96354e-015
lhumerus -33.7722 9.97854 77.5099
lradius 26.7696
lwrist 4.63835
lhand -9.18935 1.53654
lfingers 7.12502
lthumb 16.7642 30.8328
rfemur 3.72048 -15.356 15.796
rtibia 21.4157
rfoot -19.1497 -43.7389
rtoes 3.77087
lfemur -13.3883 -11.2973 -13.5939
ltibia 25.6502
lfoot -11.721 -2.45782
ltoes -10.4178
142
root 0.369919 17.9269 -26.6203 2.17038 36.1539 0.182122
lowerback 2.8382 8.31146 1.99728
upperback -1.18998 11.1668 -0.011884
thorax -2.41726 5.53931 -1.6107
lowerneck 4.62806 18.3779 15.7129
upperneck 6.05253 25.7741 -9.56851
head 4.30268 13.0284 -3.85968
rclavicle -3.48215e-014 1.98785e-015
rhumerus -39.0908 -17.4314 -67.0409
rradius 29.5882
rwrist -13.6526
rhand -13.7518 -1.62027
rfingers 7.12502
rthumb 12.3684 -31.2344
lclavicle -3.48215e-014 1.98785e-015
lhumerus -33.8575 10.3355 77.3324
lradius 26.5459
lwrist 4.51919
lhand -9.25156 1.59394
lfingers 7.12502
lthumb 16.7043 30.8952
rfemur 3.73045 -15.2741 15.7141
rtibia 21.4095
rfoot -19.0158 -43.5919
rtoes 3.66364
lfemur -13.2874 -11.2757 -13.6533
ltibia 25.6212
lfoot -11.693 -2.24086
ltoes -10.4075
143
root 0.372616 17.927 -26.6227 2.15065 35.931 0.193331
lowerback 2.76246 8.28223 1.93171
upperback -1.16193 11.1226 -0.0267459
thorax -2.35715 5.51957 -1.57531
lowerneck 4.37436 17.9889 15.9149
upperneck 6.45574 25.2342 -9.42743
head 4.40755 12.7638 -3.86297
rclavicle -1.53289e-013 -7.95139e-015
rhumerus -38.8194 -16.7061 -67.2953
rradius 29.7074
rwrist -14.2666
rhand -13.7611 -1.68018
rfingers 7.12502
rthumb 12.3594 -31.2948
lclavicle -1.53289e-013 -7.95139e-015
lhumerus -33.9249 10.6259 77.1477
lradius 26.3143
lwrist 4.39292
lhand -9.29784 1.63116
lfingers 7.12502
lthumb 16.6597 30.9362
rfemur 3.74064 -15.2012 15.6491
rtibia 21.4009
rfoot -18.8681 -43.447
rtoes 3.55079
lfemur -13.1915 -11.2406 -13.6946
ltibia 25.5969
lfoot -11.6689 -2.04135
ltoes -10.387
144
root 0.375153 17.9272 -26.6256 2.12223 35.6982 0.183031
lowerback 2.70229 8.23494 1.89308
upperback -1.13917 11.056 -0.0344517
thorax -2.30824 5.488 -1.54904
lowerneck 3.94629 17.6043 16.0029
upperneck 7.01287 24.6713 -9.18169
head 4.55733 12.4846 -3.80629
rclavicle 6.05222e-014 -9.93923e-016
rhumerus -38.6221 -16.1517 -67.5218
rradius 29.8826
rwrist -14.6716
rhand -13.7175 -1.75735
rfingers 7.12502
rthumb 12.4015 -31.3695
lclavicle 6.05222e-014 -9.93923e-016
lhumerus -34.02 10.9731 76.9326
lradius 26.0791
lwrist 4.1998
lhand -9.29087 1.5954
lfingers 7.12502
lthumb 16.6664 30.8999
rfemur 3.74456 -15.1307 15.6024
rtibia 21.3885
rfoot -18.7349 -43.289
rtoes 3.45704
lfemur -13.1042 -11.2002 -13.7154
ltibia 25.5804
lfoot -11.6458 -1.83745
ltoes -10.365
145
root 0.37801 17.9271 -26.6292 2.0938 35.4528 0.172214
lowerback 2.66185 8.17525 1.87234
upperback -1.12181 10.9741 -0.0475732
thorax -2.27195 5.44812 -1.54059
lowerneck 3.50028 17.1949 16.0673
upperneck 7.49583 24.0729 -9.02989
head 4.69301 12.186 -3.78041
rclavicle 2.39986e-014 9.14409e-015
rhumerus -38.6915 -16.2545 -67.6502
rradius 30.2089
rwrist -14.3985
rhand -13.6889 -1.75564
rfingers 7.12502
rthumb 12.429 -31.3661
lclavicle 2.39986e-014 9.14409e-015
lhumerus -34.1402 11.3064 76.7068
lradius 25.8568
lwrist 3.99118
lhand -9.25536 1.51998
lfingers 7.12502
lthumb 16.7006 30.8216
rfemur 3.74688 -15.0762 15.5473
rtibia 21.3743
rfoot -18.5872 -43.1066
rtoes 3.35944
lfemur -13.0189 -11.1501 -13.7381
ltibia 25.5708
lfoot -11.6244 -1.63015
ltoes -10.3389
146
root 0.380665 17.9272 -26.6334 2.06324 35.1881 0.152066
lowerback 2.63723 8.09141 1.86182
upperback -1.11193 10.8611 -0.0496598
thorax -2.2535 5.39228 -1.52885
lowerneck 3.15523 16.7677 16.1168
upperneck 7.7796 23.4645 -9.03638
head 4.76812 11.881 -3.81805
rclavicle 1.39708e-013 9.74045e-015
rhumerus -38.93 -16.6976 -67.7386
rradius 30.6505
rwrist -13.7058
rhand -13.7055 -1.65753
rfingers 7.12502
rthumb 12.4131 -31.269
lclavicle 1.39708e-013 9.74045e-015
lhumerus -34.308 11.6986 76.4581
lradius 25.649
lwrist 3.75779
lhand -9.1998 1.41994
lfingers 7.12502
lthumb 16.7541 30.717
rfemur 3.73801 -15.0176 15.4993
rtibia 21.3607
rfoot -18.4422 -42.9133
rtoes 3.26741
lfemur -12.9365 -11.1016 -13.7518
ltibia 25.5644
lfoot -11.5992 -1.40202
ltoes -10.3118
147
root 0.383569 17.9272 -26.6377 2.04733 34.9024 0.149258
lowerback 2.60342 7.96998 1.82178
upperback -1.0979 10.6973 -0.022939
thorax -2.23817 5.31169 -1.47001
lowerneck 3.00033 16.3293 16.156
upperneck 7.77422 22.8728 -9.28529
head 4.75263 11.5819 -3.95139
rclavicle 1.50565e-013 8.34896e-015
rhumerus -39.2634 -17.3019 -67.8119
rradius 31.1881
rwrist -12.7402
rhand -13.7554 -1.49271
rfingers 7.12502
rthumb 12.3649 -31.107
lclavicle 1.50565e-013 8.34896e-015
lhumerus -34.5323 12.2161 76.1957
lradius 25.4528
lwrist 3.5003
lhand -9.15393 1.3345
lfingers 7.12502
lthumb 16.7983 30.6278
rfemur 3.71808 -14.9631 15.4306
rtibia 21.351
rfoot -18.2378 -42.7082
rtoes 3.12779
lfemur -12.8518 -11.0511 -13.7818
ltibia 25.556
lfoot -11.5718 -1.15809
ltoes -10.2811
148
root 0.38625 17.9273 -26.6414 2.03548 34.6006 0.154515
lowerback 2.50394 7.82374 1.70925
upperback -1.04856 10.4974 0.0654101
thorax -2.17509 5.2155 -1.29811
lowerneck 3.06537 15.8647 16.2506
upperneck 7.49497 22.2899 -9.83838
head 4.65802 11.2867 -4.20709
rclavicle -3.76775e-014 -4.37326e-015
rhumerus -39.5808 -17.9032 -67.8577
rradius 31.766
rwrist -11.6787
rhand -13.7961 -1.326
rfingers 7.12502
rthumb 12.3257 -30.9427
lclavicle -3.76775e-014 -4.37326e-015
lhumerus -34.788 12.8394 75.9741
lradius 25.2717
lwrist 3.25689
lhand -9.11661 1.26335
lfingers 7.12502
lthumb 16.8342 30.5536
rfemur 3.69437 -14.8968 15.3565
rtibia 21.3451
rfoot -18.0226 -42.5061
rtoes 2.96805
lfemur -12.7566 -11.0144 -13.8175
ltibia 25.5421
lfoot -11.5402 -0.886858
ltoes -10.2874
149
root 0.389086 17.9276 -26.6449 2.03623 34.282 0.172754
lowerback 2.34545 7.65673 1.54231
upperback -0.972353 10.2676 0.19558
thorax -2.06803 5.10607 -1.04443
lowerneck 3.12619 15.403 16.2791
upperneck 7.23622 21.7154 -10.4374
head 4.56574 10.9941 -4.46672
rclavicle 9.85133e-014 4.77083e-015
rhumerus -39.761 -18.2899 -67.926
rradius 32.2968
rwrist -10.7586
rhand -13.9241 -1.08774
rfingers 7.12502
rthumb 12.2022 -30.7118
lclavicle 9.85133e-014 4.77083e-015
lhumerus -35.0668 13.5205 75.7961
lradius 25.1182
lwrist 3.08247
lhand -9.13011 1.27906
lfingers 7.12502
lthumb 16.8212 30.5705
rfemur 3.66033 -14.8237 15.2704
rtibia 21.3411
rfoot -17.7642 -42.3036
rtoes 2.76964
lfemur -12.658 -10.9882 -13.8649
ltibia 25.5225
lfoot -11.5044 -0.591874
ltoes -10.2878
